<svg width="37.023926" height="37.023926" viewBox="0 0 37.0239 37.0239" fill="none" xmlns="http://www.w3.org/2000/svg" xmlns:xlink="http://www.w3.org/1999/xlink">
	<desc>
			Created with Pixso.
	</desc>
	<defs/>
	<rect id="Rectangle 71" rx="10.680000" width="37.023998" height="37.023998" fill="#F6F6F6" fill-opacity="1.000000"/>
	<path id="Vector" d="M27.3623 14.9951C27.3738 15.1533 27.3738 15.311 27.3738 15.4692C27.3738 20.292 23.7031 25.8491 16.9941 25.8491C14.9272 25.8491 13.0071 25.2505 11.3921 24.2114C11.6858 24.2451 11.968 24.2563 12.2729 24.2563C13.9785 24.2563 15.5483 23.6802 16.802 22.6978C15.1982 22.6641 13.8542 21.6138 13.3911 20.168C13.6172 20.2017 13.843 20.2241 14.0801 20.2241C14.4077 20.2241 14.7354 20.1792 15.0403 20.1001C13.3687 19.7612 12.115 18.293 12.115 16.5195L12.115 16.4746C12.6006 16.7456 13.1653 16.915 13.7639 16.9375C12.7812 16.2827 12.1375 15.1646 12.1375 13.8994C12.1375 13.2217 12.3181 12.6006 12.6345 12.0586C14.4302 14.272 17.1296 15.7178 20.1565 15.876C20.1001 15.605 20.0662 15.3228 20.0662 15.04C20.0662 13.0298 21.6926 11.3921 23.7144 11.3921C24.7646 11.3921 25.7134 11.8325 26.3796 12.5439C27.2041 12.3862 27.9949 12.0811 28.6951 11.6631C28.4241 12.5103 27.8479 13.2217 27.0913 13.6733C27.8254 13.5947 28.5369 13.3911 29.1921 13.1089C28.6951 13.8315 28.074 14.4756 27.3623 14.9951Z" fill="#2A2F2F" fill-opacity="1.000000" fill-rule="nonzero"/>
</svg>
