<svg width="37.023926" height="37.023926" viewBox="0 0 37.0239 37.0239" fill="none" xmlns="http://www.w3.org/2000/svg" xmlns:xlink="http://www.w3.org/1999/xlink">
	<desc>
			Created with Pixso.
	</desc>
	<defs/>
	<rect id="Rectangle 73" rx="10.680000" width="37.023998" height="37.023998" fill="#F6F6F6" fill-opacity="1.000000"/>
	<path id="in" d="M14.8628 24.272L12.4432 24.272L12.4432 15.244L14.8628 15.244L14.8628 24.272ZM12.3013 12.9078Q12.3013 12.3654 12.6643 12.015Q13.0272 11.6646 13.653 11.6646Q14.2704 11.6646 14.6376 12.015Q15.0047 12.3654 15.0047 12.9078Q15.0047 13.4585 14.6334 13.8089Q14.2621 14.1593 13.653 14.1593Q13.0439 14.1593 12.6726 13.8089Q12.3013 13.4585 12.3013 12.9078ZM19.4099 15.244L19.485 16.287Q20.4528 15.0772 22.0799 15.0772Q23.515 15.0772 24.2159 15.9199Q24.9167 16.7626 24.9334 18.4397L24.9334 24.272L22.5221 24.272L22.5221 18.4981Q22.5221 17.7305 22.1883 17.3842Q21.8546 17.0379 21.0786 17.0379Q20.0607 17.0379 19.5517 17.9057L19.5517 24.272L17.1404 24.272L17.1404 15.244L19.4099 15.244Z" fill="#2A2F2F" fill-opacity="1.000000" fill-rule="evenodd"/>
</svg>
