<svg width="37.023926" height="37.023926" viewBox="0 0 37.0239 37.0239" fill="none" xmlns="http://www.w3.org/2000/svg" xmlns:xlink="http://www.w3.org/1999/xlink">
	<desc>
			Created with Pixso.
	</desc>
	<defs/>
	<rect id="Rectangle 69" rx="10.680000" width="37.023998" height="37.023998" fill="#F6F6F6" fill-opacity="1.000000"/>
	<path id="Vector" d="M18.4739 14.4756C16.2627 14.4756 14.4792 16.2593 14.4792 18.4702C14.4792 20.6812 16.2627 22.4648 18.4739 22.4648C20.6848 22.4648 22.4683 20.6812 22.4683 18.4702C22.4683 16.2593 20.6848 14.4756 18.4739 14.4756ZM18.4739 21.0674C17.0449 21.0674 15.8767 19.9028 15.8767 18.4702C15.8767 17.0381 17.0415 15.8735 18.4739 15.8735C19.906 15.8735 21.0708 17.0381 21.0708 18.4702C21.0708 19.9028 19.9026 21.0674 18.4739 21.0674ZM23.5635 14.3125C23.5635 14.8306 23.1462 15.2441 22.6318 15.2441C22.1138 15.2441 21.7 14.8267 21.7 14.3125C21.7 13.7979 22.1172 13.3804 22.6318 13.3804C23.1462 13.3804 23.5635 13.7979 23.5635 14.3125ZM26.2092 15.2578C26.1499 14.0098 25.865 12.9043 24.9507 11.9937C24.0398 11.0825 22.9341 10.7974 21.686 10.7349C20.3997 10.6621 16.5442 10.6621 15.2581 10.7349C14.0134 10.7939 12.9077 11.0791 11.9934 11.9897C11.0791 12.9009 10.7976 14.0063 10.7349 15.2544C10.6619 16.541 10.6619 20.3965 10.7349 21.6826C10.7939 22.9307 11.0791 24.0361 11.9934 24.9473C12.9077 25.8579 14.0098 26.1431 15.2581 26.2056C16.5442 26.2788 20.3997 26.2788 21.686 26.2056C22.9341 26.1465 24.0398 25.8613 24.9507 24.9473C25.8616 24.0361 26.1465 22.9307 26.2092 21.6826C26.2822 20.3965 26.2822 16.5444 26.2092 15.2578ZM24.5474 23.063C24.2761 23.7441 23.7512 24.269 23.0664 24.5439C22.0408 24.9507 19.6072 24.8569 18.4739 24.8569C17.3403 24.8569 14.9033 24.9473 13.8811 24.5439C13.1997 24.2725 12.6748 23.7476 12.4001 23.063C11.9934 22.0371 12.0874 19.6035 12.0874 18.4702C12.0874 17.3369 11.9968 14.8999 12.4001 13.8779C12.6714 13.1963 13.1963 12.6714 13.8811 12.3965C14.9067 11.9897 17.3403 12.084 18.4739 12.084C19.6072 12.084 22.0442 11.9937 23.0664 12.3965C23.7478 12.668 24.2727 13.1929 24.5474 13.8779C24.9541 14.9033 24.8601 17.3369 24.8601 18.4702C24.8601 19.6035 24.9541 22.0405 24.5474 23.063Z" fill="#2A2F2F" fill-opacity="1.000000" fill-rule="nonzero"/>
</svg>
