<svg width="153.761963" height="51.261230" viewBox="0 0 153.762 51.2612" fill="none" xmlns="http://www.w3.org/2000/svg" xmlns:xlink="http://www.w3.org/1999/xlink">
	<desc>
			Created with Pixso.
	</desc>
	<defs/>
	<path id="Vector" d="M153.762 37.6934C153.762 45.1514 147.652 51.2612 140.194 51.2612L13.5679 51.2612C6.11011 51.2612 0 45.1514 0 37.6934L0 13.5679C0 6.10986 6.11011 0 13.5679 0L140.194 0C147.652 0 153.762 6.10986 153.762 13.5679L153.762 37.6934Z" fill="#404040" fill-opacity="1.000000" fill-rule="nonzero"/>
	<path id="Available on the" d="M58.5246 18.8496L57.8746 17.2496L54.8546 17.2496L54.2046 18.8496L53.4046 18.8496L56.0746 12.3496L56.6546 12.3496L59.3246 18.8496L58.5246 18.8496ZM55.1346 16.5496L57.5846 16.5496L56.3546 13.5196L55.1346 16.5496ZM60.9732 18.8496L59.1632 14.2496L59.9132 14.2496L61.3332 17.8596L62.7632 14.2496L63.5132 14.2496L61.6832 18.8496L60.9732 18.8496ZM67.9833 14.2496L68.7133 14.2496L68.7133 18.8496L67.9833 18.8496L67.9833 18.0196C67.6333 18.5696 67.0533 18.9296 66.2733 18.9296C64.9633 18.9296 64.0333 17.9196 64.0333 16.5496C64.0333 15.1696 64.9633 14.1796 66.2733 14.1796C67.0533 14.1796 67.6333 14.5296 67.9833 15.0796L67.9833 14.2496ZM66.3633 18.2396C67.3533 18.2396 67.9833 17.5296 67.9833 16.5496C67.9833 15.5696 67.3533 14.8696 66.3633 14.8696C65.3833 14.8696 64.7333 15.5696 64.7333 16.5496C64.7333 17.5296 65.3833 18.2396 66.3633 18.2396ZM70.4043 13.2696C70.1843 13.2696 69.9643 13.0896 69.9643 12.8196C69.9643 12.5496 70.1843 12.3896 70.4043 12.3896C70.6243 12.3896 70.8443 12.5496 70.8443 12.8196C70.8443 13.0896 70.6243 13.2696 70.4043 13.2696ZM70.7643 18.8496L70.0443 18.8496L70.0443 14.2496L70.7743 14.2496L70.7643 18.8496ZM72.823 18.8496L72.103 18.8496L72.103 12.3496L72.823 12.3496L72.823 18.8496ZM77.8954 14.2496L78.6254 14.2496L78.6254 18.8496L77.8954 18.8496L77.8954 18.0196C77.5454 18.5696 76.9654 18.9296 76.1854 18.9296C74.8754 18.9296 73.9454 17.9196 73.9454 16.5496C73.9454 15.1696 74.8754 14.1796 76.1854 14.1796C76.9654 14.1796 77.5454 14.5296 77.8954 15.0796L77.8954 14.2496ZM76.2754 18.2396C77.2654 18.2396 77.8954 17.5296 77.8954 16.5496C77.8954 15.5696 77.2654 14.8696 76.2754 14.8696C75.2954 14.8696 74.6454 15.5696 74.6454 16.5496C74.6454 17.5296 75.2954 18.2396 76.2754 18.2396ZM82.3064 14.1796C83.6164 14.1796 84.5564 15.1696 84.5564 16.5496C84.5564 17.9196 83.6164 18.9296 82.3064 18.9296C81.5264 18.9296 80.9464 18.5696 80.5964 18.0196L80.5964 18.8496L79.8764 18.8496L79.8764 12.3496L80.5964 12.3496L80.5964 15.0796C80.9464 14.5296 81.5264 14.1796 82.3064 14.1796ZM82.2164 18.2396C83.1964 18.2396 83.8464 17.5296 83.8464 16.5496C83.8464 15.5696 83.1964 14.8696 82.2164 14.8696C81.2364 14.8696 80.5964 15.5696 80.5964 16.5496C80.5964 17.5296 81.2364 18.2396 82.2164 18.2396ZM86.3875 18.8496L85.6674 18.8496L85.6674 12.3496L86.3875 12.3496L86.3875 18.8496ZM89.7799 14.1696C91.0999 14.1696 91.9799 15.1796 91.9799 16.5496L91.9799 16.7796L88.2099 16.7796C88.2999 17.6996 88.9299 18.3096 89.8399 18.3096C90.5199 18.3096 90.9899 17.9996 91.2499 17.6096L91.7599 17.9796C91.3599 18.5696 90.6799 18.9396 89.8399 18.9396C88.4399 18.9396 87.5099 17.9196 87.5099 16.5496C87.5099 15.1796 88.3999 14.1696 89.7799 14.1696ZM89.7799 14.7696C88.8799 14.7696 88.3099 15.3796 88.2099 16.2796L91.3099 16.2796C91.2099 15.4096 90.6399 14.7696 89.7799 14.7696ZM97.301 18.9396C95.921 18.9396 94.961 17.9196 94.961 16.5496C94.961 15.1696 95.921 14.1696 97.301 14.1696C98.681 14.1696 99.641 15.1696 99.641 16.5496C99.641 17.9196 98.681 18.9396 97.301 18.9396ZM97.301 18.2396C98.271 18.2396 98.911 17.5196 98.911 16.5496C98.911 15.5796 98.271 14.8696 97.301 14.8696C96.331 14.8696 95.681 15.5796 95.681 16.5496C95.681 17.5196 96.331 18.2396 97.301 18.2396ZM102.955 14.1796C103.875 14.1796 104.785 14.7196 104.785 16.0196L104.785 18.8496L104.065 18.8496L104.065 16.1196C104.065 15.2396 103.445 14.8096 102.765 14.8096C102.075 14.8096 101.475 15.2396 101.475 16.1196L101.475 18.8496L100.755 18.8496L100.755 14.2496L101.475 14.2496L101.475 14.8696C101.825 14.3896 102.385 14.1796 102.955 14.1796ZM110.22 14.8196L109.12 14.8196L109.12 17.6496C109.12 18.1396 109.42 18.2596 109.76 18.2596L110.17 18.2596L110.17 18.8496L109.5 18.8496C108.8 18.8496 108.39 18.4496 108.39 17.7496L108.39 14.8196L107.75 14.8196L107.75 14.2496L108.39 14.2496L108.39 12.8496L109.12 12.8496L109.12 14.2496L110.22 14.2496L110.22 14.8196ZM113.414 14.1796C114.334 14.1796 115.244 14.7196 115.244 16.0196L115.244 18.8496L114.524 18.8496L114.524 16.1196C114.524 15.2396 113.904 14.8096 113.224 14.8096C112.534 14.8096 111.934 15.2396 111.934 16.1196L111.934 18.8496L111.214 18.8496L111.214 12.3496L111.934 12.3496L111.934 14.8696C112.284 14.3896 112.844 14.1796 113.414 14.1796ZM118.637 14.1696C119.957 14.1696 120.837 15.1796 120.837 16.5496L120.837 16.7796L117.067 16.7796C117.157 17.6996 117.787 18.3096 118.697 18.3096C119.377 18.3096 119.847 17.9996 120.107 17.6096L120.617 17.9796C120.217 18.5696 119.537 18.9396 118.697 18.9396C117.297 18.9396 116.367 17.9196 116.367 16.5496C116.367 15.1796 117.257 14.1696 118.637 14.1696ZM118.637 14.7696C117.737 14.7696 117.167 15.3796 117.067 16.2796L120.167 16.2796C120.067 15.4096 119.497 14.7696 118.637 14.7696Z" fill="#FFFFFF" fill-opacity="1.000000" fill-rule="evenodd"/>
	<path id="App Store" d="M60.4718 40.2005L59.3018 37.3205L53.8658 37.3205L52.6958 40.2005L51.2558 40.2005L56.0618 28.5005L57.1058 28.5005L61.9118 40.2005L60.4718 40.2005ZM54.3698 36.0605L58.7798 36.0605L56.5658 30.6065L54.3698 36.0605ZM67.8417 31.7945C70.1997 31.7945 71.8917 33.6125 71.8917 36.0785C71.8917 38.5625 70.1997 40.3445 67.8417 40.3445C66.4377 40.3445 65.3937 39.7145 64.7637 38.7065L64.7637 43.5125L63.4677 43.5125L63.4677 31.9205L64.7637 31.9205L64.7637 33.4325C65.3937 32.4245 66.4377 31.7945 67.8417 31.7945ZM67.6797 39.1025C69.4437 39.1025 70.6137 37.8425 70.6137 36.0785C70.6137 34.3145 69.4437 33.0365 67.6797 33.0365C65.9157 33.0365 64.7637 34.3145 64.7637 36.0785C64.7637 37.8425 65.9157 39.1025 67.6797 39.1025ZM78.2655 31.7945C80.6235 31.7945 82.3155 33.6125 82.3155 36.0785C82.3155 38.5625 80.6235 40.3445 78.2655 40.3445C76.8615 40.3445 75.8175 39.7145 75.1875 38.7065L75.1875 43.5125L73.8915 43.5125L73.8915 31.9205L75.1875 31.9205L75.1875 33.4325C75.8175 32.4245 76.8615 31.7945 78.2655 31.7945ZM78.1035 39.1025C79.8675 39.1025 81.0375 37.8425 81.0375 36.0785C81.0375 34.3145 79.8675 33.0365 78.1035 33.0365C76.3395 33.0365 75.1875 34.3145 75.1875 36.0785C75.1875 37.8425 76.3395 39.1025 78.1035 39.1025ZM87.5588 37.6985L88.6748 36.9605C89.0888 38.0585 90.5288 39.0485 92.4728 39.0485C94.4888 39.0485 95.3348 38.2925 95.3348 36.9425C95.3348 35.4125 93.0488 35.0525 91.9868 34.7465C90.8528 34.4405 87.9728 33.9545 87.9728 31.5425C87.9728 29.3465 89.8448 28.3025 92.3468 28.3025C94.5068 28.3025 96.2348 29.3465 96.6668 30.6245L95.5508 31.2905C95.2268 30.4265 93.8948 29.6525 92.2028 29.6525C90.4568 29.6525 89.5028 30.3365 89.5028 31.4885C89.5028 32.9285 91.5908 33.2345 92.7428 33.5405C93.7868 33.8465 96.8288 34.4585 96.8288 36.8885C96.8288 39.1925 95.1548 40.3985 92.3468 40.3985C89.8268 40.3985 88.1168 39.2285 87.5588 37.6985ZM102.635 32.9465L100.655 32.9465L100.655 38.0405C100.655 38.9225 101.195 39.1385 101.807 39.1385L102.545 39.1385L102.545 40.2005L101.339 40.2005C100.079 40.2005 99.3414 39.4805 99.3414 38.2205L99.3414 32.9465L98.1894 32.9465L98.1894 31.9205L99.3414 31.9205L99.3414 29.4005L100.655 29.4005L100.655 31.9205L102.635 31.9205L102.635 32.9465ZM107.963 40.3625C105.479 40.3625 103.751 38.5265 103.751 36.0605C103.751 33.5765 105.479 31.7765 107.963 31.7765C110.447 31.7765 112.175 33.5765 112.175 36.0605C112.175 38.5265 110.447 40.3625 107.963 40.3625ZM107.963 39.1025C109.709 39.1025 110.861 37.8065 110.861 36.0605C110.861 34.3145 109.709 33.0365 107.963 33.0365C106.217 33.0365 105.047 34.3145 105.047 36.0605C105.047 37.8065 106.217 39.1025 107.963 39.1025ZM115.477 33.4505C116.107 32.3165 117.223 31.8125 118.393 31.7945L118.393 33.0365C117.115 33.0545 115.477 33.7205 115.477 35.7365L115.477 40.2005L114.181 40.2005L114.181 31.9205L115.477 31.9205L115.477 33.4505ZM123.323 31.7765C125.699 31.7765 127.283 33.5945 127.283 36.0605L127.283 36.4745L120.497 36.4745C120.659 38.1305 121.793 39.2285 123.431 39.2285C124.655 39.2285 125.501 38.6705 125.969 37.9685L126.887 38.6345C126.167 39.6965 124.943 40.3625 123.431 40.3625C120.911 40.3625 119.237 38.5265 119.237 36.0605C119.237 33.5945 120.839 31.7765 123.323 31.7765ZM123.323 32.8565C121.703 32.8565 120.677 33.9545 120.497 35.5745L126.077 35.5745C125.897 34.0085 124.871 32.8565 123.323 32.8565Z" fill="#FFFFFF" fill-opacity="1.000000" fill-rule="evenodd"/>
	<path id="Vector" d="M26.9333 10.7378L11.0293 10.7378C9.72656 10.7378 8.67065 11.7935 8.67065 13.0962L8.67065 40.0078C8.67065 41.3105 9.72656 42.3662 11.0293 42.3662L26.9333 42.3662C28.2363 42.3662 29.292 41.3105 29.292 40.0078L29.292 13.0962C29.292 11.8159 28.2139 10.7378 26.9333 10.7378Z" fill="#FFFFFF" fill-opacity="1.000000" fill-rule="nonzero"/>
	<path id="Vector" d="M9.79395 14.5342L28.1465 14.5342L28.1465 36.728L9.79395 36.728L9.79395 14.5342Z" fill="#404040" fill-opacity="1.000000" fill-rule="evenodd"/>
	<path id="Vector" d="M22.7329 12.1523L15.2075 12.1523C14.9155 12.1523 14.646 12.3994 14.646 12.7139C14.646 13.0283 14.8931 13.2754 15.2075 13.2754L22.7329 13.2754C23.0249 13.2754 23.2944 13.0283 23.2944 12.7139C23.2944 12.4219 23.0474 12.1523 22.7329 12.1523Z" fill="#6639A6" fill-opacity="1.000000" fill-rule="nonzero"/>
	<path id="Vector" d="M17.1846 39.4009C17.1846 38.4126 17.9932 37.5815 18.9817 37.5815C19.97 37.5815 20.8013 38.3901 20.8013 39.4009C20.8013 40.3896 19.9924 41.1982 18.9817 41.1982C17.9932 41.2207 17.1846 40.4121 17.1846 39.4009Z" fill="#6639A6" fill-opacity="1.000000" fill-rule="nonzero"/>
</svg>
