<svg width="153.761963" height="51.238770" viewBox="0 0 153.762 51.2388" fill="none" xmlns="http://www.w3.org/2000/svg" xmlns:xlink="http://www.w3.org/1999/xlink">
	<desc>
			Created with Pixso.
	</desc>
	<defs/>
	<path id="Vector" d="M153.762 37.6709C153.762 45.1289 147.652 51.2388 140.194 51.2388L13.5679 51.2388C6.11011 51.2388 0 45.1289 0 37.6709L0 13.5679C0 6.10986 6.11011 0 13.5679 0L140.194 0C147.652 0 153.762 6.10986 153.762 13.5679L153.762 37.6709Z" fill="#404040" fill-opacity="1.000000" fill-rule="nonzero"/>
	<path id="android app on" d="M54.9269 14.4L55.6569 14.4L55.6569 19L54.9269 19L54.9269 18.17C54.5769 18.72 53.9969 19.08 53.2169 19.08C51.9069 19.08 50.9769 18.07 50.9769 16.7C50.9769 15.32 51.9069 14.33 53.2169 14.33C53.9969 14.33 54.5769 14.68 54.9269 15.23L54.9269 14.4ZM53.3069 18.39C54.2969 18.39 54.9269 17.68 54.9269 16.7C54.9269 15.72 54.2969 15.02 53.3069 15.02C52.3269 15.02 51.6769 15.72 51.6769 16.7C51.6769 17.68 52.3269 18.39 53.3069 18.39ZM59.1079 14.33C60.0279 14.33 60.9379 14.87 60.9379 16.17L60.9379 19L60.2179 19L60.2179 16.27C60.2179 15.39 59.5979 14.96 58.9179 14.96C58.2279 14.96 57.6279 15.39 57.6279 16.27L57.6279 19L56.9079 19L56.9079 14.4L57.6279 14.4L57.6279 15.02C57.9779 14.54 58.5379 14.33 59.1079 14.33ZM66.0109 12.5L66.7409 12.5L66.7409 19L66.0109 19L66.0109 18.17C65.6609 18.72 65.0809 19.08 64.3009 19.08C62.9909 19.08 62.0609 18.07 62.0609 16.7C62.0609 15.32 62.9909 14.33 64.3009 14.33C65.0809 14.33 65.6609 14.68 66.0109 15.23L66.0109 12.5ZM64.3909 18.39C65.3809 18.39 66.0109 17.68 66.0109 16.7C66.0109 15.72 65.3809 15.02 64.3909 15.02C63.4109 15.02 62.7609 15.72 62.7609 16.7C62.7609 17.68 63.4109 18.39 64.3909 18.39ZM68.7119 15.25C69.0619 14.62 69.6819 14.34 70.3319 14.33L70.3319 15.02C69.6219 15.03 68.7119 15.4 68.7119 16.52L68.7119 19L67.9919 19L67.9919 14.4L68.7119 14.4L68.7119 15.25ZM73.1411 19.09C71.7611 19.09 70.8011 18.07 70.8011 16.7C70.8011 15.32 71.7611 14.32 73.1411 14.32C74.5211 14.32 75.4811 15.32 75.4811 16.7C75.4811 18.07 74.5211 19.09 73.1411 19.09ZM73.1411 18.39C74.1111 18.39 74.7511 17.67 74.7511 16.7C74.7511 15.73 74.1111 15.02 73.1411 15.02C72.1711 15.02 71.5211 15.73 71.5211 16.7C71.5211 17.67 72.1711 18.39 73.1411 18.39ZM77.0354 13.42C76.8154 13.42 76.5954 13.24 76.5954 12.97C76.5954 12.7 76.8154 12.54 77.0354 12.54C77.2554 12.54 77.4754 12.7 77.4754 12.97C77.4754 13.24 77.2554 13.42 77.0354 13.42ZM77.3954 19L76.6754 19L76.6754 14.4L77.4054 14.4L77.3954 19ZM82.5441 12.5L83.2741 12.5L83.2741 19L82.5441 19L82.5441 18.17C82.1941 18.72 81.6141 19.08 80.8341 19.08C79.5241 19.08 78.5941 18.07 78.5941 16.7C78.5941 15.32 79.5241 14.33 80.8341 14.33C81.6141 14.33 82.1941 14.68 82.5441 15.23L82.5441 12.5ZM80.9241 18.39C81.9141 18.39 82.5441 17.68 82.5441 16.7C82.5441 15.72 81.9141 15.02 80.9241 15.02C79.9441 15.02 79.2941 15.72 79.2941 16.7C79.2941 17.68 79.9441 18.39 80.9241 18.39ZM90.3371 14.4L91.0671 14.4L91.0671 19L90.3371 19L90.3371 18.17C89.9871 18.72 89.4071 19.08 88.6271 19.08C87.3171 19.08 86.3871 18.07 86.3871 16.7C86.3871 15.32 87.3171 14.33 88.6271 14.33C89.4071 14.33 89.9871 14.68 90.3371 15.23L90.3371 14.4ZM88.7171 18.39C89.7071 18.39 90.3371 17.68 90.3371 16.7C90.3371 15.72 89.7071 15.02 88.7171 15.02C87.7371 15.02 87.0871 15.72 87.0871 16.7C87.0871 17.68 87.7371 18.39 88.7171 18.39ZM94.7481 14.33C96.0581 14.33 96.9981 15.34 96.9981 16.71C96.9981 18.09 96.0581 19.08 94.7481 19.08C93.9681 19.08 93.3881 18.73 93.0381 18.17L93.0381 20.84L92.3181 20.84L92.3181 14.4L93.0381 14.4L93.0381 15.24C93.3881 14.68 93.9681 14.33 94.7481 14.33ZM94.6581 18.39C95.6381 18.39 96.2881 17.69 96.2881 16.71C96.2881 15.73 95.6381 15.02 94.6581 15.02C93.6781 15.02 93.0381 15.73 93.0381 16.71C93.0381 17.69 93.6781 18.39 94.6581 18.39ZM100.539 14.33C101.849 14.33 102.789 15.34 102.789 16.71C102.789 18.09 101.849 19.08 100.539 19.08C99.7591 19.08 99.1791 18.73 98.8291 18.17L98.8291 20.84L98.1091 20.84L98.1091 14.4L98.8291 14.4L98.8291 15.24C99.1791 14.68 99.7591 14.33 100.539 14.33ZM100.449 18.39C101.429 18.39 102.079 17.69 102.079 16.71C102.079 15.73 101.429 15.02 100.449 15.02C99.4691 15.02 98.8291 15.73 98.8291 16.71C98.8291 17.69 99.4691 18.39 100.449 18.39ZM108.102 19.09C106.722 19.09 105.762 18.07 105.762 16.7C105.762 15.32 106.722 14.32 108.102 14.32C109.482 14.32 110.442 15.32 110.442 16.7C110.442 18.07 109.482 19.09 108.102 19.09ZM108.102 18.39C109.072 18.39 109.712 17.67 109.712 16.7C109.712 15.73 109.072 15.02 108.102 15.02C107.132 15.02 106.482 15.73 106.482 16.7C106.482 17.67 107.132 18.39 108.102 18.39ZM113.756 14.33C114.676 14.33 115.586 14.87 115.586 16.17L115.586 19L114.866 19L114.866 16.27C114.866 15.39 114.246 14.96 113.566 14.96C112.876 14.96 112.276 15.39 112.276 16.27L112.276 19L111.556 19L111.556 14.4L112.276 14.4L112.276 15.02C112.626 14.54 113.186 14.33 113.756 14.33Z" fill="#FFFFFF" fill-opacity="1.000000" fill-rule="evenodd"/>
	<path id="Google Play" d="M60.1248 34.3807C60.0168 37.7107 57.8928 40.1047 54.5088 40.1047C51.0348 40.1047 48.6588 37.5847 48.6588 34.1107C48.6588 30.6367 51.0348 28.1167 54.5088 28.1167C56.5788 28.1167 58.2348 29.0167 59.2428 30.4567L58.1268 31.2487C57.2988 30.0967 56.0028 29.4847 54.5088 29.4847C51.8268 29.4847 50.0088 31.4287 50.0088 34.1107C50.0088 36.7927 51.8268 38.7367 54.5088 38.7367C56.7228 38.7367 58.3608 37.3147 58.5948 35.0647L54.4548 35.0647L54.4548 33.8047L60.1248 33.8047L60.1248 34.3807ZM66.1757 40.1227C63.6917 40.1227 61.9637 38.2867 61.9637 35.8207C61.9637 33.3367 63.6917 31.5367 66.1757 31.5367C68.6597 31.5367 70.3877 33.3367 70.3877 35.8207C70.3877 38.2867 68.6597 40.1227 66.1757 40.1227ZM66.1757 38.8627C67.9217 38.8627 69.0737 37.5667 69.0737 35.8207C69.0737 34.0747 67.9217 32.7967 66.1757 32.7967C64.4297 32.7967 63.2597 34.0747 63.2597 35.8207C63.2597 37.5667 64.4297 38.8627 66.1757 38.8627ZM76.3535 40.1227C73.8695 40.1227 72.1414 38.2867 72.1414 35.8207C72.1414 33.3367 73.8695 31.5367 76.3535 31.5367C78.8375 31.5367 80.5655 33.3367 80.5655 35.8207C80.5655 38.2867 78.8375 40.1227 76.3535 40.1227ZM76.3535 38.8627C78.0995 38.8627 79.2514 37.5667 79.2514 35.8207C79.2514 34.0747 78.0995 32.7967 76.3535 32.7967C74.6075 32.7967 73.4375 34.0747 73.4375 35.8207C73.4375 37.5667 74.6075 38.8627 76.3535 38.8627ZM89.4292 31.6807L90.7432 31.6807L90.7432 39.3487C90.7432 41.7247 89.0512 43.3807 86.3872 43.3807C84.9472 43.3807 83.7232 42.8227 82.9672 41.9227L83.8492 41.1847C84.5152 41.9227 85.4332 42.2467 86.3872 42.2467C87.9172 42.2467 89.4292 41.3287 89.4292 39.3487L89.4292 38.4667C88.7992 39.4567 87.7552 40.1047 86.3512 40.1047C83.9932 40.1047 82.3192 38.2867 82.3192 35.8207C82.3192 33.3547 83.9932 31.5547 86.3512 31.5547C87.7552 31.5547 88.7992 32.1847 89.4292 33.1747L89.4292 31.6807ZM86.5132 38.8627C88.2772 38.8627 89.4292 37.5847 89.4292 35.8207C89.4292 34.0567 88.2772 32.7967 86.5132 32.7967C84.7492 32.7967 83.5792 34.0567 83.5792 35.8207C83.5792 37.5847 84.7492 38.8627 86.5132 38.8627ZM94.291 39.9607L92.995 39.9607L92.995 28.2607L94.291 28.2607L94.291 39.9607ZM100.397 31.5367C102.773 31.5367 104.357 33.3547 104.357 35.8207L104.357 36.2347L97.5714 36.2347C97.7334 37.8907 98.8674 38.9887 100.505 38.9887C101.729 38.9887 102.575 38.4307 103.043 37.7287L103.961 38.3947C103.241 39.4567 102.017 40.1227 100.505 40.1227C97.9854 40.1227 96.3114 38.2867 96.3114 35.8207C96.3114 33.3547 97.9134 31.5367 100.397 31.5367ZM100.397 32.6167C98.7774 32.6167 97.7514 33.7147 97.5714 35.3347L103.151 35.3347C102.971 33.7687 101.945 32.6167 100.397 32.6167ZM115.249 28.2607C117.013 28.2607 118.597 29.6647 118.597 31.8247C118.597 33.9847 117.013 35.3887 115.249 35.3887L111.325 35.3887L111.325 39.9607L109.975 39.9607L109.975 28.2607L115.249 28.2607ZM115.051 34.0747C116.311 34.0747 117.229 33.0847 117.229 31.8247C117.229 30.5827 116.329 29.5927 115.051 29.5927L111.325 29.5927L111.325 34.0747L115.051 34.0747ZM121.783 39.9607L120.487 39.9607L120.487 28.2607L121.783 28.2607L121.783 39.9607ZM130.914 31.6807L132.228 31.6807L132.228 39.9607L130.914 39.9607L130.914 38.4667C130.284 39.4567 129.24 40.1047 127.836 40.1047C125.478 40.1047 123.804 38.2867 123.804 35.8207C123.804 33.3367 125.478 31.5547 127.836 31.5547C129.24 31.5547 130.284 32.1847 130.914 33.1747L130.914 31.6807ZM127.998 38.8627C129.78 38.8627 130.914 37.5847 130.914 35.8207C130.914 34.0567 129.78 32.7967 127.998 32.7967C126.234 32.7967 125.064 34.0567 125.064 35.8207C125.064 37.5847 126.234 38.8627 127.998 38.8627ZM140.185 31.6807L141.535 31.6807L136.927 43.2727L135.649 43.2727L136.945 39.9427L133.705 31.6807L135.055 31.6807L137.611 38.1607L140.185 31.6807Z" fill="#FFFFFF" fill-opacity="1.000000" fill-rule="evenodd"/>
	<path id="Vector" d="M8.67065 42.1187L8.67065 9.14258L38.3223 25.1592L8.67065 42.1187Z" fill="#5CA9B3" fill-opacity="1.000000" fill-rule="nonzero"/>
	<path id="Vector" d="M8.67065 9.14258L29.6514 30.1235L38.3223 25.1592L8.67065 9.14258Z" fill="#C8DB9B" fill-opacity="1.000000" fill-rule="nonzero"/>
	<path id="Vector" d="M29.4717 20.374L8.67065 42.1187L38.3223 25.1587L29.4717 20.374Z" fill="#AC5067" fill-opacity="1.000000" fill-rule="nonzero"/>
	<path id="Vector" d="M29.6516 30.123L38.3225 25.1587L29.4719 20.374L24.7996 25.271L29.6516 30.123Z" fill="#F4A676" fill-opacity="1.000000" fill-rule="nonzero"/>
</svg>
