<svg width="32.359131" height="32.359375" viewBox="0 0 32.3591 32.3594" fill="none" xmlns="http://www.w3.org/2000/svg" xmlns:xlink="http://www.w3.org/1999/xlink">
	<desc>
			Created with Pixso.
	</desc>
	<defs/>
	<circle id="Ellipse 11" cx="16.179688" cy="16.179688" r="16.179621" fill="#FFFFFF" fill-opacity="1.000000"/>
	<path id="heart" d="M10.3804 11.4146C8.65771 12.8818 8.41528 15.3345 9.76807 17.0698C10.8926 18.5127 14.2964 21.5552 15.4121 22.54C15.5369 22.6504 15.5991 22.7056 15.6721 22.7271C15.7356 22.7461 15.8052 22.7461 15.8687 22.7271C15.9414 22.7056 16.0039 22.6504 16.1287 22.54C17.2441 21.5552 20.6479 18.5127 21.7727 17.0698C23.1255 15.3345 22.9124 12.8662 21.1604 11.4146C19.4082 9.96289 17.145 10.3784 15.7703 11.9805C14.3955 10.3784 12.1028 9.94727 10.3804 11.4146Z" stroke="#3C4242" stroke-opacity="1.000000" stroke-width="1.260662" stroke-linejoin="round"/>
</svg>
